<mxfile host="65bd71144e">
    <diagram id="mzO_CvgGdJ5bJuFoguiS" name="Page-1">
        <mxGraphModel dx="369" dy="255" grid="1" gridSize="10" guides="1" tooltips="1" connect="1" arrows="1" fold="1" page="1" pageScale="1" pageWidth="850" pageHeight="1100" math="0" shadow="0">
            <root>
                <mxCell id="0"/>
                <mxCell id="1" parent="0"/>
                <mxCell id="9" style="edgeStyle=none;html=1;exitX=1.005;exitY=0.167;exitDx=0;exitDy=0;exitPerimeter=0;rounded=0;" parent="1" source="2" edge="1">
                    <mxGeometry relative="1" as="geometry">
                        <mxPoint x="240" y="200" as="targetPoint"/>
                    </mxGeometry>
                </mxCell>
                <mxCell id="2" value="Administratorius" style="html=1;dashed=0;whitespace=wrap;rounded=0;" parent="1" vertex="1">
                    <mxGeometry y="190" width="120" height="60" as="geometry"/>
                </mxCell>
                <mxCell id="8" style="edgeStyle=none;html=1;exitX=0.834;exitY=0.13;exitDx=0;exitDy=0;entryX=0.843;entryY=0.998;entryDx=0;entryDy=0;entryPerimeter=0;exitPerimeter=0;rounded=0;" parent="1" source="3" target="6" edge="1">
                    <mxGeometry relative="1" as="geometry"/>
                </mxCell>
                <mxCell id="10" style="edgeStyle=none;html=1;exitX=0.026;exitY=0.666;exitDx=0;exitDy=0;exitPerimeter=0;entryX=1;entryY=0.833;entryDx=0;entryDy=0;entryPerimeter=0;rounded=0;" parent="1" source="3" target="2" edge="1">
                    <mxGeometry relative="1" as="geometry">
                        <mxPoint x="130" y="240" as="targetPoint"/>
                    </mxGeometry>
                </mxCell>
                <mxCell id="12" style="edgeStyle=none;html=1;entryX=0.002;entryY=0.851;entryDx=0;entryDy=0;exitX=0.963;exitY=0.675;exitDx=0;exitDy=0;exitPerimeter=0;entryPerimeter=0;rounded=0;" parent="1" target="5" edge="1">
                    <mxGeometry relative="1" as="geometry">
                        <mxPoint x="355.31999999999994" y="241" as="sourcePoint"/>
                        <mxPoint x="460" y="241.83999999999997" as="targetPoint"/>
                    </mxGeometry>
                </mxCell>
                <mxCell id="16" style="edgeStyle=none;html=1;exitX=0.84;exitY=0.869;exitDx=0;exitDy=0;entryX=0.831;entryY=-0.007;entryDx=0;entryDy=0;entryPerimeter=0;exitPerimeter=0;rounded=0;" parent="1" source="3" target="14" edge="1">
                    <mxGeometry relative="1" as="geometry"/>
                </mxCell>
                <mxCell id="3" value="Sistemos&lt;br&gt;back end" style="shape=ellipse;html=1;dashed=0;whitespace=wrap;aspect=fixed;perimeter=ellipsePerimeter;rounded=0;" parent="1" vertex="1">
                    <mxGeometry x="240" y="160" width="120" height="120" as="geometry"/>
                </mxCell>
                <mxCell id="11" style="edgeStyle=none;html=1;exitX=-0.015;exitY=0.147;exitDx=0;exitDy=0;exitPerimeter=0;rounded=0;" parent="1" source="5" edge="1">
                    <mxGeometry relative="1" as="geometry">
                        <mxPoint x="360" y="199" as="targetPoint"/>
                    </mxGeometry>
                </mxCell>
                <mxCell id="5" value="Prisijungęs&lt;br&gt;naudotojas" style="html=1;dashed=0;whitespace=wrap;rounded=0;" parent="1" vertex="1">
                    <mxGeometry x="481" y="190" width="120" height="60" as="geometry"/>
                </mxCell>
                <mxCell id="7" style="edgeStyle=none;html=1;exitX=0.159;exitY=1.015;exitDx=0;exitDy=0;exitPerimeter=0;entryX=0.167;entryY=0.083;entryDx=0;entryDy=0;entryPerimeter=0;rounded=0;" parent="1" source="6" target="3" edge="1">
                    <mxGeometry relative="1" as="geometry">
                        <mxPoint x="260" y="150" as="targetPoint"/>
                    </mxGeometry>
                </mxCell>
                <mxCell id="6" value="Naudotojas" style="html=1;dashed=0;whitespace=wrap;rounded=0;" parent="1" vertex="1">
                    <mxGeometry x="240" width="120" height="60" as="geometry"/>
                </mxCell>
                <mxCell id="15" style="edgeStyle=none;html=1;exitX=0.167;exitY=0.018;exitDx=0;exitDy=0;exitPerimeter=0;rounded=0;" parent="1" source="14" edge="1">
                    <mxGeometry relative="1" as="geometry">
                        <mxPoint x="260" y="270" as="targetPoint"/>
                    </mxGeometry>
                </mxCell>
                <mxCell id="14" value="Duomenų&lt;br&gt;bazė" style="html=1;dashed=0;whitespace=wrap;rounded=0;" parent="1" vertex="1">
                    <mxGeometry x="240" y="380" width="120" height="50" as="geometry"/>
                </mxCell>
                <mxCell id="18" value="Pateikia &lt;br&gt;informaciją" style="text;html=1;align=center;verticalAlign=middle;resizable=0;points=[];autosize=1;strokeColor=none;fillColor=none;labelBackgroundColor=default;spacing=2;rounded=0;" parent="1" vertex="1">
                    <mxGeometry x="185" y="312" width="80" height="40" as="geometry"/>
                </mxCell>
                <mxCell id="19" value="Redaguoja, kuria &lt;br&gt;turinį," style="text;html=1;align=center;verticalAlign=middle;resizable=0;points=[];autosize=1;strokeColor=none;fillColor=none;labelBorderColor=none;labelBackgroundColor=default;rounded=0;" parent="1" vertex="1">
                    <mxGeometry x="125" y="164" width="110" height="40" as="geometry"/>
                </mxCell>
                <mxCell id="20" value="Gauna užklausą,&lt;br&gt;saugo informaciją" style="text;html=1;align=center;verticalAlign=middle;resizable=0;points=[];autosize=1;strokeColor=none;fillColor=none;labelBackgroundColor=default;spacing=2;rounded=0;" parent="1" vertex="1">
                    <mxGeometry x="335" y="309" width="120" height="40" as="geometry"/>
                </mxCell>
                <mxCell id="21" value="Gauna informaciją" style="text;html=1;align=center;verticalAlign=middle;resizable=0;points=[];autosize=1;strokeColor=none;fillColor=none;labelBorderColor=none;labelBackgroundColor=default;rounded=0;" parent="1" vertex="1">
                    <mxGeometry x="126" y="241" width="120" height="30" as="geometry"/>
                </mxCell>
                <mxCell id="22" value="Gauna informaciją" style="text;html=1;align=center;verticalAlign=middle;resizable=0;points=[];autosize=1;strokeColor=none;fillColor=none;labelBorderColor=none;labelBackgroundColor=default;rounded=0;" parent="1" vertex="1">
                    <mxGeometry x="363" y="240" width="120" height="30" as="geometry"/>
                </mxCell>
                <mxCell id="23" value="Gauna informaciją" style="text;html=1;align=center;verticalAlign=middle;resizable=0;points=[];autosize=1;strokeColor=none;fillColor=none;labelBorderColor=none;labelBackgroundColor=default;rounded=0;" parent="1" vertex="1">
                    <mxGeometry x="335" y="89" width="120" height="30" as="geometry"/>
                </mxCell>
                <mxCell id="24" value="Formuoja&lt;br&gt;užsakymą" style="text;html=1;align=center;verticalAlign=middle;resizable=0;points=[];autosize=1;strokeColor=none;fillColor=none;labelBorderColor=none;labelBackgroundColor=default;rounded=0;" parent="1" vertex="1">
                    <mxGeometry x="180" y="84" width="80" height="40" as="geometry"/>
                </mxCell>
                <mxCell id="25" value="Pateikia informacija" style="text;html=1;align=center;verticalAlign=middle;resizable=0;points=[];autosize=1;strokeColor=none;fillColor=none;labelBorderColor=none;labelBackgroundColor=default;rounded=0;" parent="1" vertex="1">
                    <mxGeometry x="357" y="169" width="130" height="30" as="geometry"/>
                </mxCell>
            </root>
        </mxGraphModel>
    </diagram>
</mxfile>